<svg width="399" height="371" viewBox="0 0 399 371" fill="none" xmlns="http://www.w3.org/2000/svg">
<g filter="url(#filter0_d_112_1033)">
<g filter="url(#filter1_g_112_1033)">
<path d="M276 182C286.493 182 295 191.178 295 202.5C295 204.052 294.839 205.563 294.536 207.016C294.686 207.346 294.833 207.678 294.974 208.013L295.089 208.289C302.616 211.337 308 219.459 308 229C308 231.274 307.956 233.624 307.815 235.943C312.2 239.978 315 246.119 315 253C315 255.316 314.954 257.713 314.807 260.074C319.766 264.063 323 270.605 323 278C323 290.15 319.27 303 308.5 303C307.967 303 307.426 302.967 306.88 302.905C305.727 303.296 304.513 303.5 303.283 303.5H259.55C253.863 303.5 248.189 302.96 242.604 301.89L154.084 284.918C133.926 281.053 120.414 261.964 123.47 241.668C124.472 235.008 127.216 228.73 131.424 223.471L135.569 218.287C135.198 217.243 135 216.14 135 215C135 209.172 140.194 204.314 147.081 203.228C146.969 203.022 146.827 202.827 146.652 202.652C145.72 201.72 145.662 200.228 146.537 199.242C148.142 197.436 150.331 195.046 152.465 192.898C154.379 190.972 156.979 189.928 159.692 189.797L258.51 185.016C260.902 184.9 263.274 185.014 265.598 185.344C268.586 183.23 272.16 182 276 182Z" fill="#FFFEFC"/>
<path d="M233.707 30C241.845 30 251.064 35.5509 254.143 43.1689C256.604 42.4023 259.191 42 261.707 42C271.006 42 294.407 54.06 297.392 63.9805C301.348 66.431 306.316 70.7811 312.867 76.958C327.515 84.7001 340.132 110.953 334.336 121.921C331.732 126.847 326.954 130.087 321.153 131.461C322.145 136.343 322.004 140.765 320.336 143.921C316.669 150.86 308.688 154.453 299.61 154.198C299.674 154.952 299.707 155.721 299.707 156.5C299.707 166.064 294.804 173.931 288.515 174.898C286.163 181.462 280.553 186.409 273.695 187.68C270.24 193.28 264.147 197 257.207 197C257.147 197 257.087 196.998 257.026 196.997C253.45 201.283 248.138 204 242.207 204C238.588 204 235.2 202.988 232.295 201.226C231.661 201.348 231.025 201.465 230.387 201.575C227.125 206.674 221.766 210 215.707 210C210.498 210 205.806 207.54 202.52 203.61C199.695 206.356 196.11 208 192.207 208C186.59 208 181.629 204.598 178.649 199.401C175.974 201.669 172.719 203 169.207 203C163.016 203 157.622 198.867 154.799 192.753C153.954 192.914 153.089 193 152.207 193C143.648 193 136.61 185.101 135.787 174.988C129.078 174.66 123.707 166.509 123.707 156.5C123.707 153.088 124.331 149.891 125.42 147.146C117.573 146.634 110.876 143.107 107.606 136.921C106.175 134.213 105.868 130.574 106.435 126.512C103.917 124.859 101.857 122.679 100.44 120C94.6436 109.032 107.26 82.7796 121.908 75.0371C127.075 70.1655 131.258 66.4296 134.735 63.8662C135.513 53.9891 154.218 45.6139 164.01 45.502C167.799 39.289 175.867 35 185.207 35C188.66 35 191.94 35.5855 194.894 36.6387C198.195 32.5811 203.158 30 208.707 30C212.974 30 216.893 31.5267 219.978 34.0762C223.916 31.4455 228.94 30 233.707 30Z" fill="#FFFEFC"/>
<path d="M145 90C140.167 96.4433 136.632 112.285 135.5 126.359C134.081 143.993 125.359 151.198 125 148.5" stroke="#E1D8CD" stroke-opacity="0.4" stroke-width="4" stroke-linecap="round"/>
<path d="M270.146 87C274.98 93.4433 269.014 109.427 270.146 123.5C271.565 141.135 299.787 155.698 300.146 153" stroke="#E1D8CD" stroke-opacity="0.4" stroke-width="4" stroke-linecap="round"/>
<path d="M156 193.5L159.586 197.445C160.523 198.476 161.612 199.357 162.815 200.059L163.762 200.611C165.857 201.833 168.308 202.299 170.705 201.93L172.075 201.719C173.009 201.576 173.888 201.19 174.625 200.6V200.6C176.816 198.847 179.983 199.066 181.912 201.102L184.632 203.973C186.463 205.905 189.008 207 191.67 207H193.639C195.184 207 196.7 206.58 198.025 205.785V205.785C201.27 203.838 205.436 204.287 208.217 206.854V206.854C209.377 207.925 210.819 208.664 212.367 208.973L213.109 209.122C215.929 209.686 218.859 209.151 221.298 207.626L224.468 205.645C227.756 203.59 231.556 202.5 235.434 202.5H241.36C243.443 202.5 245.516 202.21 247.519 201.637V201.637C250.151 200.885 252.623 199.658 254.812 198.016L255.5 197.5" stroke="#E1D8CD" stroke-opacity="0.4" stroke-width="4" stroke-linecap="round"/>
<ellipse cx="239.5" cy="123" rx="7.5" ry="11" fill="#2E322F"/>
<ellipse cx="173.5" cy="123" rx="7.5" ry="11" fill="#2E322F"/>
<ellipse cx="200" cy="141.5" rx="7.5" ry="11" transform="rotate(90 200 141.5)" fill="#2E322F"/>
<path d="M318.216 231.04C311.907 212.309 324.368 208.645 334.716 210.388C345.064 212.131 357.383 219.441 357.384 231.039C357.384 232.293 357.29 233.522 357.109 234.715C357.936 235.529 358.646 236.365 359.216 237.199C365.128 245.865 361.458 257.126 353.101 265.163C353.726 269.886 352.83 274.414 349.216 277.888C345.339 281.614 339.976 283.82 334.652 284.402C334.47 285.155 334.161 285.829 333.716 286.389C330.217 290.793 319.639 291.094 306.716 283.888C301.426 280.938 298.34 274.022 300.936 269.365C301.552 268.261 302.774 267.482 304.351 266.976C306.536 257.38 314.473 244.909 320.213 239.39C318.952 236.831 318.216 234.008 318.216 231.04Z" fill="#FFFEFC"/>
<path d="M314 244.541C314 244.541 327 260.98 321.5 276.98" stroke="#E1D8CD" stroke-opacity="0.4" stroke-width="4" stroke-linecap="round"/>
<path d="M213.385 268.247C215.282 267.644 217.28 267.425 219.263 267.602L293.221 274.205C308.508 275.57 312.122 296.294 298.199 302.753L237.526 330.9C235.237 331.962 232.717 332.429 230.2 332.259L129.128 325.412C112.607 324.293 109.817 301.167 125.598 296.151L213.385 268.247Z" fill="#3D3D3D"/>
<path d="M32.8087 200.963C30.8791 191.356 38.5288 182.508 48.3139 183.03L195.586 190.885C202.223 191.239 207.836 195.918 209.378 202.383L235.828 313.288C238.174 323.125 230.313 332.417 220.223 331.734L68.2873 321.441C61.5363 320.984 55.9273 316.063 54.5948 309.429L32.8087 200.963Z" fill="#343636"/>
<path d="M110.606 278.125C113.463 278.51 120.732 279.151 124.632 279.484C126.334 279.63 128.009 279.999 129.612 280.59L136.003 282.945C138.095 283.715 140.307 284.11 142.537 284.11H147.208C149.364 284.11 151.478 283.51 153.313 282.378L154.39 281.714C155.083 281.286 155.677 280.716 156.132 280.042C157.322 278.281 157.442 276.007 156.444 274.131L155.811 272.941C155.565 272.478 155.275 272.042 154.945 271.634C153.881 270.319 151.403 267.226 150.506 265.84C149.351 264.055 148.616 262.912 148.616 260.905C148.616 260.517 148.687 260.075 148.8 259.615C149.512 256.739 150.506 253.892 150.506 250.93C150.506 250.93 150.506 248.305 148.616 246.94C146.726 245.575 143.471 246.94 141.476 245.47C139.481 244 140.36 243.382 139.166 241.48C137.972 239.578 132.8 237.28 132.446 237.28C132.092 237.28 130.346 236.65 127.196 237.28C124.046 237.91 124.676 239.59 122.051 239.59C119.426 239.59 116.591 237.28 114.596 237.28C112.601 237.28 112.667 237.7 110.606 239.59C108.545 241.48 107.351 252.085 105.041 256.495C102.731 260.905 98.9511 262.153 96.5361 267.625C95.637 269.662 95.2327 271.638 95.0794 273.315C94.8222 276.13 97.2794 278.125 100.106 278.125C100.106 278.125 106.616 277.588 110.606 278.125Z" fill="url(#paint0_linear_112_1033)"/>
<circle cx="130.132" cy="250.586" r="0.952374" fill="#222222"/>
<circle cx="116.322" cy="250.11" r="0.952374" fill="#222222"/>
<path d="M115.449 253.919L117.096 254.69C118.476 255.336 119.95 255.76 121.462 255.945V255.945C122.53 256.076 123.608 256.087 124.678 255.978L125.424 255.902C126.971 255.745 128.495 255.417 129.969 254.926L131.56 254.396" stroke="#222222" stroke-width="1.05" stroke-linecap="round"/>
<path d="M250.187 97.827C250.664 103.425 249.814 105.558 246.769 108.064C250.815 107.901 252.147 109.466 253.371 114.468C253.688 110.518 253.554 108.117 256.278 106.245C253.131 105.927 251.909 103.696 250.187 97.827Z" fill="#FFD400"/>
<path d="M140.519 280.963C140.306 281.02 140.128 281.068 139.986 281.106C139.851 281.133 139.711 281.161 139.566 281.191C139.439 281.215 139.313 281.206 139.187 281.164C139.068 281.11 138.99 281.031 138.952 280.927C138.924 280.858 138.926 280.796 138.959 280.739C138.991 280.683 139.031 280.634 139.077 280.593C139.129 280.541 139.19 280.501 139.259 280.473C139.461 280.409 139.731 280.332 140.068 280.241C140.415 280.148 140.774 280.051 141.148 279.951C141.521 279.851 141.877 279.759 142.217 279.678C142.564 279.584 142.839 279.51 143.044 279.456C143.19 279.397 143.319 279.381 143.431 279.409C143.55 279.424 143.613 279.464 143.621 279.529C143.643 279.647 143.625 279.757 143.566 279.858L143.519 280.056C143.4 280.393 143.288 280.738 143.183 281.09C143.077 281.442 142.975 281.789 142.876 282.13C142.784 282.459 142.694 282.779 142.605 283.089C142.524 283.387 142.447 283.65 142.375 283.879C142.287 284.189 142.189 284.534 142.082 284.916C141.981 285.286 141.893 285.629 141.816 285.945C141.804 286.186 141.778 286.426 141.738 286.666C141.706 286.903 141.658 287.149 141.594 287.405L142.034 287.343L142.538 287.251C142.565 287.244 142.606 287.237 142.662 287.232C142.717 287.226 142.763 287.219 142.799 287.209C142.816 287.205 142.856 287.194 142.919 287.177C142.99 287.158 143.061 287.139 143.132 287.12C143.209 287.089 143.279 287.066 143.341 287.049C143.41 287.021 143.453 287.005 143.471 287L144.038 286.876C144.127 286.852 144.229 286.825 144.345 286.794C144.469 286.76 144.581 286.735 144.681 286.718C144.834 286.753 144.961 286.8 145.062 286.858C145.17 286.905 145.241 286.991 145.274 287.115C145.315 287.267 145.292 287.396 145.207 287.505C145.125 287.622 144.986 287.693 144.793 287.716L144.352 287.778C144.307 287.79 144.257 287.798 144.202 287.804C144.148 287.818 144.106 287.82 144.075 287.809C144.048 287.817 143.956 287.846 143.798 287.898C143.652 287.956 143.505 287.996 143.358 288.016C142.883 288.125 142.497 288.214 142.202 288.284C141.913 288.343 141.644 288.391 141.397 288.429L141.325 288.477C141.258 288.514 141.19 288.542 141.119 288.561C141.056 288.578 140.982 288.584 140.895 288.579C140.814 288.562 140.731 288.518 140.644 288.446C140.558 288.374 140.528 288.244 140.554 288.056C140.58 287.868 140.614 287.625 140.658 287.327C140.7 287.021 140.759 286.71 140.836 286.394C140.857 286.045 140.905 285.694 140.981 285.34C141.067 284.984 141.165 284.624 141.277 284.26C141.41 283.834 141.544 283.412 141.68 282.994C141.824 282.575 141.95 282.155 142.056 281.736L142.435 280.434L142.441 280.403L140.519 280.963ZM147.395 278.557C147.481 278.487 147.567 278.435 147.654 278.402C147.747 278.358 147.841 278.318 147.936 278.283C147.963 278.276 147.985 278.27 148.003 278.265C148.027 278.249 148.053 278.238 148.079 278.231C148.332 278.144 148.59 278.112 148.854 278.137C149.127 278.159 149.381 278.219 149.617 278.317C149.921 278.455 150.189 278.654 150.421 278.916C150.653 279.177 150.84 279.499 150.98 279.88C151.046 280.053 151.106 280.223 151.16 280.389C151.214 280.555 151.265 280.727 151.313 280.905C151.39 281.189 151.448 281.479 151.489 281.772C151.536 282.055 151.558 282.33 151.554 282.598C151.555 282.817 151.548 283.038 151.532 283.261C151.514 283.476 151.482 283.694 151.436 283.916C151.389 284.129 151.315 284.349 151.214 284.576C151.119 284.792 150.993 285.011 150.834 285.235C150.619 285.569 150.382 285.857 150.123 286.098C149.861 286.33 149.533 286.509 149.138 286.634C148.752 286.757 148.401 286.78 148.084 286.703C147.775 286.615 147.521 286.469 147.324 286.265C147.178 286.113 147.027 285.939 146.869 285.744C146.709 285.539 146.581 285.345 146.484 285.161C146.373 284.962 146.264 284.749 146.155 284.521C146.055 284.291 145.968 284.076 145.896 283.876C145.733 283.377 145.652 282.88 145.652 282.384C145.65 281.88 145.678 281.42 145.738 281.003C145.777 280.688 145.87 280.377 146.016 280.071C146.169 279.754 146.358 279.484 146.584 279.261L146.878 279.025C146.906 278.989 146.938 278.947 146.973 278.899C147.014 278.841 147.05 278.798 147.081 278.77L147.395 278.557ZM149.916 279.909C149.844 279.709 149.735 279.553 149.59 279.439C149.445 279.326 149.306 279.234 149.174 279.165L149.177 279.179C148.93 279.112 148.72 279.073 148.546 279.063C148.378 279.041 148.177 279.071 147.941 279.154C147.697 279.238 147.481 279.406 147.291 279.657C147.101 279.908 146.946 280.217 146.825 280.583L146.822 280.569C146.611 281.521 146.637 282.486 146.899 283.463C146.921 283.543 146.942 283.623 146.964 283.703C146.983 283.774 147.006 283.844 147.034 283.913C147.098 284.077 147.171 284.262 147.255 284.468C147.337 284.665 147.424 284.847 147.516 285.012C147.697 285.297 147.919 285.519 148.18 285.677C148.451 285.833 148.728 285.873 149.013 285.796C149.119 285.768 149.243 285.715 149.385 285.639C149.526 285.563 149.657 285.428 149.776 285.234C149.855 285.136 149.919 285.038 149.968 284.939C150.027 284.838 150.082 284.742 150.134 284.652L150.306 284.334C150.37 284.183 150.411 284.001 150.43 283.786C150.448 283.572 150.461 283.354 150.469 283.133C150.474 283.084 150.479 283.03 150.483 282.972C150.492 282.902 150.491 282.846 150.48 282.801C150.494 282.464 150.474 282.107 150.42 281.731C150.376 281.352 150.299 280.997 150.191 280.664C150.148 280.542 150.106 280.42 150.064 280.298C150.019 280.167 149.97 280.037 149.916 279.909ZM153.615 279.572C153.723 279.905 153.85 280.199 153.995 280.456C154.14 280.712 154.312 280.961 154.51 281.203C154.75 281.491 154.986 281.766 155.218 282.028C155.457 282.278 155.747 282.524 156.088 282.765C156.325 282.94 156.591 283.078 156.885 283.18C157.186 283.271 157.54 283.261 157.949 283.151C157.993 283.139 158.055 283.104 158.135 283.044C158.214 282.985 158.29 282.912 158.362 282.826C158.44 282.729 158.505 282.616 158.557 282.488C158.617 282.357 158.656 282.218 158.673 282.071C158.675 281.899 158.744 281.766 158.88 281.672C159.017 281.578 159.188 281.504 159.392 281.449L159.572 281.429C159.67 281.402 159.748 281.41 159.807 281.451C159.875 281.49 159.927 281.543 159.964 281.609C160.001 281.676 160.017 281.752 160.011 281.839C160.004 281.918 159.984 281.985 159.951 282.041C159.939 282.207 159.884 282.374 159.786 282.543C159.698 282.71 159.579 282.923 159.429 283.182C159.204 283.443 158.989 283.653 158.784 283.813C158.586 283.961 158.322 284.08 157.994 284.168C157.789 284.223 157.603 284.254 157.433 284.262C157.264 284.269 157.094 284.257 156.924 284.227C156.762 284.194 156.587 284.146 156.399 284.082C156.217 284.007 156.012 283.919 155.785 283.819C155.499 283.676 155.214 283.486 154.931 283.248C154.655 282.998 154.365 282.719 154.063 282.41C153.831 282.186 153.615 281.949 153.414 281.698C153.211 281.438 153.033 281.181 152.879 280.927C152.722 280.665 152.596 280.408 152.5 280.157C152.402 279.898 152.341 279.652 152.316 279.421C152.288 279.066 152.284 278.696 152.304 278.31C152.332 277.921 152.406 277.558 152.525 277.221C152.614 276.95 152.738 276.702 152.897 276.478C153.054 276.246 153.257 276.043 153.506 275.872C153.592 275.801 153.661 275.739 153.714 275.687C153.766 275.635 153.816 275.588 153.862 275.547C153.908 275.506 153.955 275.47 154.004 275.438C154.052 275.406 154.116 275.379 154.196 275.357C154.398 275.293 154.589 275.257 154.767 275.247C154.945 275.237 155.151 275.239 155.383 275.253C155.485 275.244 155.573 275.249 155.644 275.268C155.723 275.276 155.783 275.288 155.826 275.305C155.871 275.331 155.907 275.36 155.934 275.39C156.217 275.448 156.459 275.516 156.661 275.595C156.872 275.672 157.05 275.786 157.196 275.937C157.287 276.027 157.366 276.144 157.433 276.288C157.509 276.429 157.569 276.58 157.612 276.74C157.709 277.066 157.767 277.336 157.787 277.55C157.813 277.753 157.786 277.936 157.706 278.101C157.633 278.254 157.501 278.384 157.311 278.493C157.121 278.601 156.849 278.703 156.493 278.798C156.286 278.844 156.099 278.89 155.93 278.935C155.77 278.978 155.614 279.02 155.463 279.061C155.312 279.101 155.154 279.149 154.987 279.203C154.827 279.246 154.645 279.295 154.441 279.35L153.615 279.572ZM153.375 278.679C153.508 278.643 153.614 278.615 153.694 278.593C153.783 278.569 153.859 278.549 153.921 278.532C153.992 278.513 154.069 278.497 154.151 278.485C154.242 278.47 154.356 278.449 154.491 278.422C154.721 278.389 154.915 278.351 155.075 278.308C155.233 278.256 155.368 278.21 155.481 278.17C155.601 278.119 155.708 278.076 155.804 278.04C155.908 278.003 156.009 277.971 156.107 277.945C156.284 277.897 156.411 277.853 156.486 277.814C156.57 277.773 156.618 277.721 156.631 277.661C156.64 277.592 156.627 277.505 156.589 277.401C156.552 277.296 156.504 277.157 156.448 276.981C156.401 276.842 156.322 276.725 156.211 276.631C156.109 276.534 155.995 276.45 155.871 276.379C155.687 276.295 155.551 276.232 155.463 276.189C155.375 276.146 155.281 276.114 155.18 276.093C154.962 276.095 154.791 276.117 154.669 276.159C154.545 276.193 154.411 276.243 154.267 276.31C154.072 276.401 153.927 276.535 153.832 276.713C153.737 276.891 153.64 277.098 153.542 277.334C153.458 277.518 153.409 277.727 153.395 277.959C153.379 278.182 153.372 278.423 153.375 278.679Z" fill="#FFFEFC"/>
</g>
<g filter="url(#filter2_g_112_1033)">
<path d="M209 161.13C209 162.859 205.642 166 201.5 166C197.358 166 194 162.859 194 161.13C194 159.402 197.358 158 201.5 158C205.642 158 209 159.402 209 161.13Z" fill="#FFCFD0"/>
</g>
<g filter="url(#filter3_g_112_1033)">
<rect width="16.36" height="3" rx="1.5" transform="matrix(-0.969548 -0.244901 -0.244901 0.969548 182.448 114.381)" fill="#2E322F"/>
</g>
<g filter="url(#filter4_g_112_1033)">
<rect x="229.908" y="115.011" width="16.3635" height="3" rx="1.5" transform="rotate(-21.5502 229.908 115.011)" fill="#2E322F"/>
</g>
</g>
<defs>
<filter id="filter0_d_112_1033" x="0.509155" y="0" width="397.607" height="370.293" filterUnits="userSpaceOnUse" color-interpolation-filters="sRGB">
<feFlood flood-opacity="0" result="BackgroundImageFix"/>
<feColorMatrix in="SourceAlpha" type="matrix" values="0 0 0 0 0 0 0 0 0 0 0 0 0 0 0 0 0 0 127 0" result="hardAlpha"/>
<feOffset dx="2" dy="4"/>
<feGaussianBlur stdDeviation="17"/>
<feComposite in2="hardAlpha" operator="out"/>
<feColorMatrix type="matrix" values="0 0 0 0 0 0 0 0 0 0 0 0 0 0 0 0 0 0 0.13 0"/>
<feBlend mode="normal" in2="BackgroundImageFix" result="effect1_dropShadow_112_1033"/>
<feBlend mode="normal" in="SourceGraphic" in2="effect1_dropShadow_112_1033" result="shape"/>
</filter>
<filter id="filter1_g_112_1033" x="31.5092" y="29" width="331.607" height="304.293" filterUnits="userSpaceOnUse" color-interpolation-filters="sRGB">
<feFlood flood-opacity="0" result="BackgroundImageFix"/>
<feBlend mode="normal" in="SourceGraphic" in2="BackgroundImageFix" result="shape"/>
<feTurbulence type="fractalNoise" baseFrequency="0.25 0.25" numOctaves="3" seed="2345" />
<feDisplacementMap in="shape" scale="2" xChannelSelector="R" yChannelSelector="G" result="displacedImage" width="100%" height="100%" />
<feMerge result="effect1_texture_112_1033">
<feMergeNode in="displacedImage"/>
</feMerge>
</filter>
<filter id="filter2_g_112_1033" x="193" y="157" width="17" height="10" filterUnits="userSpaceOnUse" color-interpolation-filters="sRGB">
<feFlood flood-opacity="0" result="BackgroundImageFix"/>
<feBlend mode="normal" in="SourceGraphic" in2="BackgroundImageFix" result="shape"/>
<feTurbulence type="fractalNoise" baseFrequency="0.25 0.25" numOctaves="3" seed="2345" />
<feDisplacementMap in="shape" scale="2" xChannelSelector="R" yChannelSelector="G" result="displacedImage" width="100%" height="100%" />
<feMerge result="effect1_texture_112_1033">
<feMergeNode in="displacedImage"/>
</feMerge>
</filter>
<filter id="filter3_g_112_1033" x="165.173" y="109.696" width="17.9539" height="8.27246" filterUnits="userSpaceOnUse" color-interpolation-filters="sRGB">
<feFlood flood-opacity="0" result="BackgroundImageFix"/>
<feBlend mode="normal" in="SourceGraphic" in2="BackgroundImageFix" result="shape"/>
<feTurbulence type="fractalNoise" baseFrequency="0.25 0.25" numOctaves="3" seed="2844" />
<feDisplacementMap in="shape" scale="2" xChannelSelector="R" yChannelSelector="G" result="displacedImage" width="100%" height="100%" />
<feMerge result="effect1_texture_112_1033">
<feMergeNode in="displacedImage"/>
</feMerge>
</filter>
<filter id="filter4_g_112_1033" x="229.354" y="108.446" width="17.4302" height="9.90967" filterUnits="userSpaceOnUse" color-interpolation-filters="sRGB">
<feFlood flood-opacity="0" result="BackgroundImageFix"/>
<feBlend mode="normal" in="SourceGraphic" in2="BackgroundImageFix" result="shape"/>
<feTurbulence type="fractalNoise" baseFrequency="0.25 0.25" numOctaves="3" seed="2844" />
<feDisplacementMap in="shape" scale="2" xChannelSelector="R" yChannelSelector="G" result="displacedImage" width="100%" height="100%" />
<feMerge result="effect1_texture_112_1033">
<feMergeNode in="displacedImage"/>
</feMerge>
</filter>
<linearGradient id="paint0_linear_112_1033" x1="126.533" y1="236.767" x2="139.94" y2="313.207" gradientUnits="userSpaceOnUse">
<stop stop-color="#C18DCF"/>
<stop offset="1" stop-color="#9C83A3"/>
</linearGradient>
</defs>
</svg>
