<svg width="360" height="141" viewBox="0 0 360 141" fill="none" xmlns="http://www.w3.org/2000/svg">
<path d="M47.5 0.375V78.5H31.875V94.125H63.125V31.625H94.375V94.125H110V109.75H94.375V141H63.125V109.75H0.625V78.5H16.25V0.375H47.5ZM203.75 0.375V16H219.375V125.375H203.75V141H141.25V125.375H125.625V16H141.25V0.375H203.75ZM172.5 109.75H156.875V125.375H188.125V62.875H172.5V31.625H188.125V16H156.875V78.5H172.5V109.75ZM297.5 0.375V78.5H281.875V94.125H313.125V31.625H344.375V94.125H360V109.75H344.375V141H313.125V109.75H250.625V78.5H266.25V0.375H297.5Z" fill="#E63E81"/>
</svg>
